<mxfile host="app.diagrams.net" agent="Mozilla/5.0 (Windows NT 10.0; Win64; x64; rv:135.0) Gecko/20100101 Firefox/135.0" version="26.0.15">
  <diagram name="Page-1" id="q5AVXzJ-HGc714hMWB8A">
    <mxGraphModel dx="2284" dy="754" grid="1" gridSize="10" guides="1" tooltips="1" connect="1" arrows="1" fold="1" page="1" pageScale="1" pageWidth="850" pageHeight="1100" math="0" shadow="0">
      <root>
        <mxCell id="0" />
        <mxCell id="1" parent="0" />
        <mxCell id="CvHD83g_8L9D6WvRK6hR-12" value="Category/PC" style="swimlane;childLayout=stackLayout;horizontal=1;startSize=50;horizontalStack=0;rounded=1;fontSize=14;fontStyle=0;strokeWidth=2;resizeParent=0;resizeLast=1;shadow=0;dashed=0;align=center;arcSize=4;whiteSpace=wrap;html=1;fillColor=#6a00ff;strokeColor=#3700CC;fontColor=#ffffff;" parent="1" vertex="1">
          <mxGeometry x="300" y="40" width="160" height="120" as="geometry" />
        </mxCell>
        <mxCell id="CvHD83g_8L9D6WvRK6hR-13" value="&lt;div&gt;PC_ID&lt;/div&gt;&lt;div&gt;Category_ID&lt;/div&gt;" style="align=left;strokeColor=none;fillColor=none;spacingLeft=4;spacingRight=4;fontSize=12;verticalAlign=top;resizable=0;rotatable=0;part=1;html=1;whiteSpace=wrap;" parent="CvHD83g_8L9D6WvRK6hR-12" vertex="1">
          <mxGeometry y="50" width="160" height="70" as="geometry" />
        </mxCell>
        <mxCell id="CvHD83g_8L9D6WvRK6hR-14" value="PC" style="swimlane;childLayout=stackLayout;horizontal=1;startSize=50;horizontalStack=0;rounded=1;fontSize=14;fontStyle=0;strokeWidth=2;resizeParent=0;resizeLast=1;shadow=0;dashed=0;align=center;arcSize=4;whiteSpace=wrap;html=1;fillColor=#6a00ff;strokeColor=#3700CC;fontColor=#ffffff;" parent="1" vertex="1">
          <mxGeometry y="70" width="170" height="210" as="geometry" />
        </mxCell>
        <mxCell id="CvHD83g_8L9D6WvRK6hR-15" value="&lt;div&gt;PC_ID&lt;/div&gt;&lt;div&gt;Name&lt;/div&gt;&lt;div&gt;Price&lt;/div&gt;&lt;div&gt;Premium_offer&lt;/div&gt;&lt;div&gt;Stock&lt;/div&gt;" style="align=left;strokeColor=none;fillColor=none;spacingLeft=4;spacingRight=4;fontSize=12;verticalAlign=top;resizable=0;rotatable=0;part=1;html=1;whiteSpace=wrap;" parent="CvHD83g_8L9D6WvRK6hR-14" vertex="1">
          <mxGeometry y="50" width="170" height="160" as="geometry" />
        </mxCell>
        <mxCell id="CvHD83g_8L9D6WvRK6hR-16" value="Category" style="swimlane;childLayout=stackLayout;horizontal=1;startSize=50;horizontalStack=0;rounded=1;fontSize=14;fontStyle=0;strokeWidth=2;resizeParent=0;resizeLast=1;shadow=0;dashed=0;align=center;arcSize=4;whiteSpace=wrap;html=1;fillColor=#6a00ff;strokeColor=#3700CC;fontColor=#ffffff;" parent="1" vertex="1">
          <mxGeometry x="560" y="70" width="160" height="120" as="geometry" />
        </mxCell>
        <mxCell id="CvHD83g_8L9D6WvRK6hR-17" value="&lt;div&gt;Category_ID&lt;/div&gt;&lt;div&gt;name&lt;/div&gt;" style="align=left;strokeColor=none;fillColor=none;spacingLeft=4;spacingRight=4;fontSize=12;verticalAlign=top;resizable=0;rotatable=0;part=1;html=1;whiteSpace=wrap;" parent="CvHD83g_8L9D6WvRK6hR-16" vertex="1">
          <mxGeometry y="50" width="160" height="70" as="geometry" />
        </mxCell>
        <mxCell id="CvHD83g_8L9D6WvRK6hR-24" value="Cart item" style="swimlane;childLayout=stackLayout;horizontal=1;startSize=50;horizontalStack=0;rounded=1;fontSize=14;fontStyle=0;strokeWidth=2;resizeParent=0;resizeLast=1;shadow=0;dashed=0;align=center;arcSize=4;whiteSpace=wrap;html=1;fillColor=#6a00ff;strokeColor=#3700CC;fontColor=#ffffff;" parent="1" vertex="1">
          <mxGeometry x="310" y="240" width="160" height="120" as="geometry" />
        </mxCell>
        <mxCell id="CvHD83g_8L9D6WvRK6hR-25" value="&lt;div&gt;PC_ID&lt;/div&gt;&lt;div&gt;Cart_ID&lt;/div&gt;&lt;div&gt;Amount&lt;/div&gt;" style="align=left;strokeColor=none;fillColor=none;spacingLeft=4;spacingRight=4;fontSize=12;verticalAlign=top;resizable=0;rotatable=0;part=1;html=1;whiteSpace=wrap;" parent="CvHD83g_8L9D6WvRK6hR-24" vertex="1">
          <mxGeometry y="50" width="160" height="70" as="geometry" />
        </mxCell>
        <mxCell id="CvHD83g_8L9D6WvRK6hR-27" value="Cart" style="swimlane;childLayout=stackLayout;horizontal=1;startSize=50;horizontalStack=0;rounded=1;fontSize=14;fontStyle=0;strokeWidth=2;resizeParent=0;resizeLast=1;shadow=0;dashed=0;align=center;arcSize=4;whiteSpace=wrap;html=1;fillColor=#6a00ff;strokeColor=#3700CC;fontColor=#ffffff;" parent="1" vertex="1">
          <mxGeometry x="620" y="330" width="160" height="140" as="geometry" />
        </mxCell>
        <mxCell id="CvHD83g_8L9D6WvRK6hR-28" value="&lt;div&gt;Cart_ID&lt;/div&gt;&lt;div&gt;User_ID&lt;/div&gt;&lt;div&gt;Created_date&lt;/div&gt;&lt;div&gt;Updated_date&lt;/div&gt;&lt;div&gt;Cart_status_ID&lt;/div&gt;&lt;div&gt;&lt;br&gt;&lt;/div&gt;&lt;div&gt;&lt;br&gt;&lt;/div&gt;" style="align=left;strokeColor=none;fillColor=none;spacingLeft=4;spacingRight=4;fontSize=12;verticalAlign=top;resizable=0;rotatable=0;part=1;html=1;whiteSpace=wrap;" parent="CvHD83g_8L9D6WvRK6hR-27" vertex="1">
          <mxGeometry y="50" width="160" height="90" as="geometry" />
        </mxCell>
        <mxCell id="CvHD83g_8L9D6WvRK6hR-41" value="User" style="swimlane;childLayout=stackLayout;horizontal=1;startSize=50;horizontalStack=0;rounded=1;fontSize=14;fontStyle=0;strokeWidth=2;resizeParent=0;resizeLast=1;shadow=0;dashed=0;align=center;arcSize=4;whiteSpace=wrap;html=1;fillColor=#6a00ff;strokeColor=#3700CC;fontColor=#ffffff;" parent="1" vertex="1">
          <mxGeometry x="340" y="450" width="165" height="220" as="geometry" />
        </mxCell>
        <mxCell id="CvHD83g_8L9D6WvRK6hR-42" value="&lt;div&gt;User_ID&lt;/div&gt;&lt;div&gt;First_name&lt;/div&gt;&lt;div&gt;Last_name&lt;/div&gt;&lt;div&gt;House_number&lt;/div&gt;&lt;div&gt;Street&lt;/div&gt;&lt;div&gt;State_ID&lt;/div&gt;&lt;div&gt;Town&lt;/div&gt;&lt;div&gt;Email&lt;/div&gt;&lt;div&gt;username&lt;/div&gt;&lt;div&gt;password&lt;/div&gt;&lt;div&gt;Role_ID&lt;/div&gt;" style="align=left;strokeColor=none;fillColor=none;spacingLeft=4;spacingRight=4;fontSize=12;verticalAlign=top;resizable=0;rotatable=0;part=1;html=1;whiteSpace=wrap;" parent="CvHD83g_8L9D6WvRK6hR-41" vertex="1">
          <mxGeometry y="50" width="165" height="170" as="geometry" />
        </mxCell>
        <mxCell id="CvHD83g_8L9D6WvRK6hR-44" value="User roles" style="swimlane;childLayout=stackLayout;horizontal=1;startSize=50;horizontalStack=0;rounded=1;fontSize=14;fontStyle=0;strokeWidth=2;resizeParent=0;resizeLast=1;shadow=0;dashed=0;align=center;arcSize=4;whiteSpace=wrap;html=1;fillColor=#6a00ff;strokeColor=#3700CC;fontColor=#ffffff;" parent="1" vertex="1">
          <mxGeometry x="610" y="550" width="160" height="120" as="geometry" />
        </mxCell>
        <mxCell id="CvHD83g_8L9D6WvRK6hR-45" value="&lt;div&gt;Role_ID&lt;/div&gt;&lt;div&gt;Role_name&lt;/div&gt;" style="align=left;strokeColor=none;fillColor=none;spacingLeft=4;spacingRight=4;fontSize=12;verticalAlign=top;resizable=0;rotatable=0;part=1;html=1;whiteSpace=wrap;" parent="CvHD83g_8L9D6WvRK6hR-44" vertex="1">
          <mxGeometry y="50" width="160" height="70" as="geometry" />
        </mxCell>
        <mxCell id="CvHD83g_8L9D6WvRK6hR-46" value="" style="edgeStyle=entityRelationEdgeStyle;fontSize=12;html=1;endArrow=ERmandOne;startArrow=ERmandOne;rounded=0;entryX=0;entryY=0.5;entryDx=0;entryDy=0;exitX=0.994;exitY=0.918;exitDx=0;exitDy=0;exitPerimeter=0;" parent="1" source="CvHD83g_8L9D6WvRK6hR-42" target="CvHD83g_8L9D6WvRK6hR-44" edge="1">
          <mxGeometry width="100" height="100" relative="1" as="geometry">
            <mxPoint x="440" y="590" as="sourcePoint" />
            <mxPoint x="470" y="340" as="targetPoint" />
          </mxGeometry>
        </mxCell>
        <mxCell id="CvHD83g_8L9D6WvRK6hR-47" value="Order" style="swimlane;childLayout=stackLayout;horizontal=1;startSize=50;horizontalStack=0;rounded=1;fontSize=14;fontStyle=0;strokeWidth=2;resizeParent=0;resizeLast=1;shadow=0;dashed=0;align=center;arcSize=4;whiteSpace=wrap;html=1;fillColor=#6a00ff;strokeColor=#3700CC;fontColor=#ffffff;" parent="1" vertex="1">
          <mxGeometry x="60" y="320" width="160" height="190" as="geometry" />
        </mxCell>
        <mxCell id="CvHD83g_8L9D6WvRK6hR-48" value="&lt;div&gt;Order_ID&lt;/div&gt;&lt;div&gt;User_ID&lt;/div&gt;&lt;div&gt;Total_price&lt;/div&gt;&lt;div&gt;Order_date&lt;/div&gt;&lt;div&gt;Shipment_date&lt;/div&gt;&lt;div&gt;Shipment_adress&lt;br&gt;Order_status_ID&lt;/div&gt;" style="align=left;strokeColor=none;fillColor=none;spacingLeft=4;spacingRight=4;fontSize=12;verticalAlign=top;resizable=0;rotatable=0;part=1;html=1;whiteSpace=wrap;" parent="CvHD83g_8L9D6WvRK6hR-47" vertex="1">
          <mxGeometry y="50" width="160" height="140" as="geometry" />
        </mxCell>
        <mxCell id="CvHD83g_8L9D6WvRK6hR-49" value="Order item" style="swimlane;childLayout=stackLayout;horizontal=1;startSize=50;horizontalStack=0;rounded=1;fontSize=14;fontStyle=0;strokeWidth=2;resizeParent=0;resizeLast=1;shadow=0;dashed=0;align=center;arcSize=4;whiteSpace=wrap;html=1;fillColor=#6a00ff;strokeColor=#3700CC;fontColor=#ffffff;" parent="1" vertex="1">
          <mxGeometry x="-230" y="290" width="160" height="120" as="geometry" />
        </mxCell>
        <mxCell id="CvHD83g_8L9D6WvRK6hR-50" value="&lt;div&gt;PC_ID&lt;/div&gt;&lt;div&gt;Order_ID&lt;/div&gt;&lt;div&gt;Amount&lt;/div&gt;" style="align=left;strokeColor=none;fillColor=none;spacingLeft=4;spacingRight=4;fontSize=12;verticalAlign=top;resizable=0;rotatable=0;part=1;html=1;whiteSpace=wrap;" parent="CvHD83g_8L9D6WvRK6hR-49" vertex="1">
          <mxGeometry y="50" width="160" height="70" as="geometry" />
        </mxCell>
        <mxCell id="CvHD83g_8L9D6WvRK6hR-55" value="" style="edgeStyle=entityRelationEdgeStyle;fontSize=12;html=1;endArrow=ERzeroToMany;startArrow=ERmandOne;rounded=0;exitX=-0.006;exitY=0.133;exitDx=0;exitDy=0;exitPerimeter=0;entryX=0.981;entryY=0.179;entryDx=0;entryDy=0;entryPerimeter=0;" parent="1" source="CvHD83g_8L9D6WvRK6hR-42" target="CvHD83g_8L9D6WvRK6hR-48" edge="1">
          <mxGeometry width="100" height="100" relative="1" as="geometry">
            <mxPoint x="370" y="410" as="sourcePoint" />
            <mxPoint x="470" y="310" as="targetPoint" />
          </mxGeometry>
        </mxCell>
        <mxCell id="CvHD83g_8L9D6WvRK6hR-56" value="" style="edgeStyle=entityRelationEdgeStyle;fontSize=12;html=1;endArrow=ERmandOne;startArrow=ERmandOne;rounded=0;entryX=-0.012;entryY=0.386;entryDx=0;entryDy=0;entryPerimeter=0;exitX=1.022;exitY=0.1;exitDx=0;exitDy=0;exitPerimeter=0;" parent="1" source="CvHD83g_8L9D6WvRK6hR-42" target="CvHD83g_8L9D6WvRK6hR-28" edge="1">
          <mxGeometry width="100" height="100" relative="1" as="geometry">
            <mxPoint x="510" y="600" as="sourcePoint" />
            <mxPoint x="470" y="310" as="targetPoint" />
          </mxGeometry>
        </mxCell>
        <mxCell id="CvHD83g_8L9D6WvRK6hR-58" value="Order status" style="swimlane;childLayout=stackLayout;horizontal=1;startSize=50;horizontalStack=0;rounded=1;fontSize=14;fontStyle=0;strokeWidth=2;resizeParent=0;resizeLast=1;shadow=0;dashed=0;align=center;arcSize=4;whiteSpace=wrap;html=1;fillColor=#6a00ff;strokeColor=#3700CC;fontColor=#ffffff;" parent="1" vertex="1">
          <mxGeometry x="-230" y="480" width="160" height="120" as="geometry" />
        </mxCell>
        <mxCell id="CvHD83g_8L9D6WvRK6hR-59" value="&lt;div&gt;Order_status_ID&lt;/div&gt;&lt;div&gt;Status_name&lt;/div&gt;" style="align=left;strokeColor=none;fillColor=none;spacingLeft=4;spacingRight=4;fontSize=12;verticalAlign=top;resizable=0;rotatable=0;part=1;html=1;whiteSpace=wrap;" parent="CvHD83g_8L9D6WvRK6hR-58" vertex="1">
          <mxGeometry y="50" width="160" height="70" as="geometry" />
        </mxCell>
        <mxCell id="CvHD83g_8L9D6WvRK6hR-60" value="" style="edgeStyle=entityRelationEdgeStyle;fontSize=12;html=1;endArrow=ERmandOne;startArrow=ERmandOne;rounded=0;exitX=0.994;exitY=0.157;exitDx=0;exitDy=0;exitPerimeter=0;entryX=0;entryY=0.75;entryDx=0;entryDy=0;" parent="1" source="CvHD83g_8L9D6WvRK6hR-59" target="CvHD83g_8L9D6WvRK6hR-48" edge="1">
          <mxGeometry width="100" height="100" relative="1" as="geometry">
            <mxPoint x="370" y="410" as="sourcePoint" />
            <mxPoint x="470" y="310" as="targetPoint" />
          </mxGeometry>
        </mxCell>
        <mxCell id="CvHD83g_8L9D6WvRK6hR-61" value="State" style="swimlane;childLayout=stackLayout;horizontal=1;startSize=50;horizontalStack=0;rounded=1;fontSize=14;fontStyle=0;strokeWidth=2;resizeParent=0;resizeLast=1;shadow=0;dashed=0;align=center;arcSize=4;whiteSpace=wrap;html=1;fillColor=#6a00ff;strokeColor=#3700CC;fontColor=#ffffff;" parent="1" vertex="1">
          <mxGeometry x="90" y="580" width="160" height="120" as="geometry" />
        </mxCell>
        <mxCell id="CvHD83g_8L9D6WvRK6hR-62" value="&lt;div&gt;State_ID&lt;/div&gt;&lt;div&gt;State_name&lt;/div&gt;" style="align=left;strokeColor=none;fillColor=none;spacingLeft=4;spacingRight=4;fontSize=12;verticalAlign=top;resizable=0;rotatable=0;part=1;html=1;whiteSpace=wrap;" parent="CvHD83g_8L9D6WvRK6hR-61" vertex="1">
          <mxGeometry y="50" width="160" height="70" as="geometry" />
        </mxCell>
        <mxCell id="CvHD83g_8L9D6WvRK6hR-63" value="" style="edgeStyle=entityRelationEdgeStyle;fontSize=12;html=1;endArrow=ERmandOne;startArrow=ERmandOne;rounded=0;exitX=1.025;exitY=0.171;exitDx=0;exitDy=0;exitPerimeter=0;entryX=0;entryY=0.5;entryDx=0;entryDy=0;" parent="1" source="CvHD83g_8L9D6WvRK6hR-62" target="CvHD83g_8L9D6WvRK6hR-42" edge="1">
          <mxGeometry width="100" height="100" relative="1" as="geometry">
            <mxPoint x="370" y="410" as="sourcePoint" />
            <mxPoint x="470" y="310" as="targetPoint" />
          </mxGeometry>
        </mxCell>
        <mxCell id="CvHD83g_8L9D6WvRK6hR-71" value="" style="edgeStyle=entityRelationEdgeStyle;fontSize=12;html=1;endArrow=ERoneToMany;startArrow=ERmandOne;rounded=0;exitX=-0.019;exitY=0.071;exitDx=0;exitDy=0;exitPerimeter=0;entryX=0.994;entryY=0.357;entryDx=0;entryDy=0;entryPerimeter=0;" parent="1" source="CvHD83g_8L9D6WvRK6hR-48" target="CvHD83g_8L9D6WvRK6hR-50" edge="1">
          <mxGeometry width="100" height="100" relative="1" as="geometry">
            <mxPoint x="370" y="440" as="sourcePoint" />
            <mxPoint x="-80" y="299" as="targetPoint" />
          </mxGeometry>
        </mxCell>
        <mxCell id="CvHD83g_8L9D6WvRK6hR-72" value="" style="edgeStyle=entityRelationEdgeStyle;fontSize=12;html=1;endArrow=ERoneToMany;startArrow=ERmandOne;rounded=0;exitX=0.006;exitY=0.075;exitDx=0;exitDy=0;exitPerimeter=0;entryX=1.013;entryY=0.157;entryDx=0;entryDy=0;entryPerimeter=0;" parent="1" source="CvHD83g_8L9D6WvRK6hR-15" target="CvHD83g_8L9D6WvRK6hR-50" edge="1">
          <mxGeometry width="100" height="100" relative="1" as="geometry">
            <mxPoint x="50" y="300" as="sourcePoint" />
            <mxPoint x="290" y="180" as="targetPoint" />
          </mxGeometry>
        </mxCell>
        <mxCell id="CvHD83g_8L9D6WvRK6hR-73" value="" style="edgeStyle=entityRelationEdgeStyle;fontSize=12;html=1;endArrow=ERoneToMany;startArrow=ERmandOne;rounded=0;exitX=0.994;exitY=0.075;exitDx=0;exitDy=0;exitPerimeter=0;entryX=-0.025;entryY=0.157;entryDx=0;entryDy=0;entryPerimeter=0;" parent="1" source="CvHD83g_8L9D6WvRK6hR-15" target="CvHD83g_8L9D6WvRK6hR-25" edge="1">
          <mxGeometry width="100" height="100" relative="1" as="geometry">
            <mxPoint x="200" y="290" as="sourcePoint" />
            <mxPoint x="300" y="190" as="targetPoint" />
          </mxGeometry>
        </mxCell>
        <mxCell id="CvHD83g_8L9D6WvRK6hR-74" value="" style="edgeStyle=entityRelationEdgeStyle;fontSize=12;html=1;endArrow=ERoneToMany;startArrow=ERmandOne;rounded=0;exitX=0;exitY=0.5;exitDx=0;exitDy=0;entryX=1.019;entryY=0.371;entryDx=0;entryDy=0;entryPerimeter=0;" parent="1" source="CvHD83g_8L9D6WvRK6hR-27" target="CvHD83g_8L9D6WvRK6hR-25" edge="1">
          <mxGeometry width="100" height="100" relative="1" as="geometry">
            <mxPoint x="600" y="310" as="sourcePoint" />
            <mxPoint x="700" y="210" as="targetPoint" />
          </mxGeometry>
        </mxCell>
        <mxCell id="CvHD83g_8L9D6WvRK6hR-75" value="Cart status" style="swimlane;childLayout=stackLayout;horizontal=1;startSize=50;horizontalStack=0;rounded=1;fontSize=14;fontStyle=0;strokeWidth=2;resizeParent=0;resizeLast=1;shadow=0;dashed=0;align=center;arcSize=4;whiteSpace=wrap;html=1;fillColor=#6a00ff;strokeColor=#3700CC;fontColor=#ffffff;" parent="1" vertex="1">
          <mxGeometry x="920" y="310" width="160" height="120" as="geometry" />
        </mxCell>
        <mxCell id="CvHD83g_8L9D6WvRK6hR-76" value="&lt;div&gt;Cart_status_ID&lt;/div&gt;&lt;div&gt;Cart_status_name&lt;/div&gt;&lt;div&gt;&lt;br&gt;&lt;/div&gt;&lt;div&gt;&lt;br&gt;&lt;/div&gt;" style="align=left;strokeColor=none;fillColor=none;spacingLeft=4;spacingRight=4;fontSize=12;verticalAlign=top;resizable=0;rotatable=0;part=1;html=1;whiteSpace=wrap;" parent="CvHD83g_8L9D6WvRK6hR-75" vertex="1">
          <mxGeometry y="50" width="160" height="70" as="geometry" />
        </mxCell>
        <mxCell id="CvHD83g_8L9D6WvRK6hR-77" value="" style="edgeStyle=entityRelationEdgeStyle;fontSize=12;html=1;endArrow=ERmandOne;startArrow=ERmandOne;rounded=0;exitX=1.025;exitY=0.886;exitDx=0;exitDy=0;exitPerimeter=0;entryX=0.006;entryY=0.171;entryDx=0;entryDy=0;entryPerimeter=0;" parent="1" source="CvHD83g_8L9D6WvRK6hR-28" target="CvHD83g_8L9D6WvRK6hR-76" edge="1">
          <mxGeometry width="100" height="100" relative="1" as="geometry">
            <mxPoint x="810" y="290" as="sourcePoint" />
            <mxPoint x="910" y="190" as="targetPoint" />
          </mxGeometry>
        </mxCell>
        <mxCell id="CvHD83g_8L9D6WvRK6hR-80" value="" style="edgeStyle=entityRelationEdgeStyle;fontSize=12;html=1;endArrow=ERzeroToMany;startArrow=ERmandOne;rounded=0;entryX=-0.024;entryY=0.171;entryDx=0;entryDy=0;entryPerimeter=0;exitX=1;exitY=0.131;exitDx=0;exitDy=0;exitPerimeter=0;" parent="1" source="CvHD83g_8L9D6WvRK6hR-15" target="CvHD83g_8L9D6WvRK6hR-13" edge="1">
          <mxGeometry width="100" height="100" relative="1" as="geometry">
            <mxPoint x="180" y="130" as="sourcePoint" />
            <mxPoint x="490" y="140" as="targetPoint" />
          </mxGeometry>
        </mxCell>
        <mxCell id="CvHD83g_8L9D6WvRK6hR-83" value="" style="edgeStyle=entityRelationEdgeStyle;fontSize=12;html=1;endArrow=ERzeroToMany;startArrow=ERmandOne;rounded=0;exitX=0;exitY=0.25;exitDx=0;exitDy=0;entryX=1.006;entryY=0.414;entryDx=0;entryDy=0;entryPerimeter=0;" parent="1" source="CvHD83g_8L9D6WvRK6hR-17" target="CvHD83g_8L9D6WvRK6hR-13" edge="1">
          <mxGeometry width="100" height="100" relative="1" as="geometry">
            <mxPoint x="481" y="186" as="sourcePoint" />
            <mxPoint x="610" y="150" as="targetPoint" />
          </mxGeometry>
        </mxCell>
        <mxCell id="lCAJ6_FL47EpnzTk9cHq-1" value="PC specification" style="swimlane;childLayout=stackLayout;horizontal=1;startSize=50;horizontalStack=0;rounded=1;fontSize=14;fontStyle=0;strokeWidth=2;resizeParent=0;resizeLast=1;shadow=0;dashed=0;align=center;arcSize=4;whiteSpace=wrap;html=1;fillColor=#6a00ff;strokeColor=#3700CC;fontColor=#ffffff;" vertex="1" parent="1">
          <mxGeometry x="-240" y="20" width="160" height="230" as="geometry" />
        </mxCell>
        <mxCell id="lCAJ6_FL47EpnzTk9cHq-2" value="&lt;div&gt;PC_ID&lt;/div&gt;&lt;div&gt;CPU&lt;/div&gt;&lt;div&gt;CPU_GHz&lt;/div&gt;&lt;div&gt;CPU_Cores&lt;/div&gt;&lt;div&gt;GPU&lt;/div&gt;&lt;div&gt;GPU_VRAM&lt;/div&gt;&lt;div&gt;RAM&lt;/div&gt;&lt;div&gt;RAM_size&lt;/div&gt;&lt;div&gt;Storage_HDD&lt;/div&gt;&lt;div&gt;Storage_SSD&lt;/div&gt;&lt;div&gt;&lt;br&gt;&lt;/div&gt;" style="align=left;strokeColor=none;fillColor=none;spacingLeft=4;spacingRight=4;fontSize=12;verticalAlign=top;resizable=0;rotatable=0;part=1;html=1;whiteSpace=wrap;" vertex="1" parent="lCAJ6_FL47EpnzTk9cHq-1">
          <mxGeometry y="50" width="160" height="180" as="geometry" />
        </mxCell>
        <mxCell id="lCAJ6_FL47EpnzTk9cHq-3" value="" style="edgeStyle=entityRelationEdgeStyle;fontSize=12;html=1;endArrow=ERmandOne;startArrow=ERmandOne;rounded=0;exitX=1;exitY=0.25;exitDx=0;exitDy=0;entryX=0.024;entryY=0.069;entryDx=0;entryDy=0;entryPerimeter=0;" edge="1" parent="1" source="lCAJ6_FL47EpnzTk9cHq-1" target="CvHD83g_8L9D6WvRK6hR-15">
          <mxGeometry width="100" height="100" relative="1" as="geometry">
            <mxPoint x="340" y="440" as="sourcePoint" />
            <mxPoint x="440" y="340" as="targetPoint" />
          </mxGeometry>
        </mxCell>
      </root>
    </mxGraphModel>
  </diagram>
</mxfile>
